PathFileType	4	(X/Y/Z)	Patient4_TMGait_0pt5_01_left_04.trc.trc
DataRate	CameraRate	NumFrames	NumMarkers	Units	OrigDataRate	OrigDataStartFrame	OrigNumFrames
73.684210526316	73.684210526316	4	33	mm	73.684210526316	1	       141
Frame#	Time	L.ASIS			Sacral			L.Shoulder			Chest			R.Shoulder			Neck			R.ASIS			R.Thigh.Superior			R.Thigh.Lateral			R.Thigh.Inferior			R.Patella			L.Thigh.Superior			L.Thigh.Lateral			L.Thigh.Inferior			L.Patella			L.Shank.Superior			L.Shank.Lateral			L.Shank.Inferior			R.Shank.Superior			R.Shank.Lateral			R.Shank.Inferior			R.Heel			R.Midfoot.Superior			R.Midfoot.Lateral			R.Toe			L.Heel			L.Midfoot.Lateral			L.Midfoot.Superior			L.Toe			L.Elbow			L.Wrist			R.Elbow			R.Wrist			
		X1	Y1	Z1	X2	Y2	Z2	X3	Y3	Z3	X4	Y4	Z4	X5	Y5	Z5	X6	Y6	Z6	X7	Y7	Z7	X8	Y8	Z8	X9	Y9	Z9	X10	Y10	Z10	X11	Y11	Z11	X12	Y12	Z12	X13	Y13	Z13	X14	Y14	Z14	X15	Y15	Z15	X16	Y16	Z16	X17	Y17	Z17	X18	Y18	Z18	X19	Y19	Z19	X20	Y20	Z20	X21	Y21	Z21	X22	Y22	Z22	X23	Y23	Z23	X24	Y24	Z24	X25	Y25	Z25	X26	Y26	Z26	X27	Y27	Z27	X28	Y28	Z28	X29	Y29	Z29	X30	Y30	Z30	X31	Y31	Z31	X32	Y32	Z32	X33	Y33	Z33	

1	5.220000000000	725.438381389529	962.146258462644	368.880223350187	518.553079477962	1004.091948853763	536.712493396823	674.786666689113	1430.207699463534	338.277829888224	785.006426649672	1366.859768371897	497.382266156673	705.625686449840	1444.153128768651	673.034373986578	681.632637910450	1496.277314427943	487.604111006889	754.944294865912	942.680839870229	641.857343259045	796.912029692238	741.679360933411	612.169582690488	714.865105950897	632.788099927880	669.389001365802	790.592201478880	581.023749113158	587.355497058655	789.527320240126	491.934644692471	589.781352691145	807.243807625908	775.531165184857	394.474240897012	757.210801116975	651.294189591172	319.838797537808	860.505611710390	586.059387996472	377.360026051524	870.592236572162	494.433254453775	369.997727489628	800.827821581657	429.345461770807	363.149683631998	656.578257584698	394.346392882193	315.177358264311	638.245816478549	265.146729346471	369.729845082757	761.111513092067	403.706574073225	595.582475506383	690.340208641851	299.594875892223	655.310234890265	728.625057553202	205.710277357376	589.469481335372	590.677279395607	43.390299242481	557.215903067639	762.338925652948	96.873374483660	593.560477267449	673.631864488974	36.300533291934	632.165934741129	882.093486077120	42.353680831924	622.199566883104	444.041068369146	217.890002096675	408.278933659709	495.375139406710	161.751227124868	330.011822811950	601.513637765066	160.000868981608	348.917166318250	666.857928515831	38.536991310241	327.142680542450	651.714703409737	1070.001252498123	236.481435629397	719.969136201252	820.170060537299	222.076920199913	704.580879318260	1110.889749519670	820.402379594231	921.351078940546	971.024520706689	807.316152778810	
2	5.233571428571	723.949613586882	962.954669291021	369.509604267287	517.715591606755	1004.887466299900	537.986972323851	674.027979288455	1430.771269738625	339.299582247434	785.002184206214	1367.028392436670	497.704398975657	707.008746672911	1444.540441330029	673.852175417280	681.950834055292	1496.694758896947	488.583649683107	754.321257289209	942.826846053186	642.385963021525	794.801478985535	741.305960710784	612.465876885433	712.121660833538	632.918560249068	669.798688589461	787.223866713612	580.700978281414	587.587203763073	785.594990568955	491.874517161959	589.936958373472	807.168756590305	778.234365886728	394.971253472304	758.217465343686	653.300291421348	320.365017009714	862.668901535651	589.498048140605	377.003593788843	874.000885362974	498.153378305473	369.813006772164	805.830584804550	431.677203289106	363.115195451072	662.355411140682	392.859763104182	315.323956301613	647.687395763944	262.970320977667	369.544896123199	757.250507318211	403.743556316121	595.778448226876	686.437879743537	299.650922916717	655.522431504628	724.754001162565	205.812328280043	589.614103439651	586.748094756041	43.378172412751	557.245936619737	758.454154378556	96.901064108932	593.639737582265	669.690681903587	36.298127240993	632.233031727080	878.147782415995	42.377361126478	622.250732707227	454.758825275142	209.820834785070	408.314504324303	507.636284993034	155.678972188906	329.631933197665	613.873677269974	157.099978597944	348.409894887436	682.904274364267	37.803446667195	325.789403413510	646.526792905141	1070.786936697680	238.187116294663	710.446361791997	820.000336704078	223.941566052765	711.186883773643	1111.800009158890	821.612418444902	931.541895391060	979.015264725564	806.286569839968	
3	5.247142857143	722.163251332276	963.952433830977	370.228186935541	516.742791909612	1005.868457310806	539.541697276227	673.128047813240	1431.455174645301	340.547035510301	785.026725294808	1367.221069977477	498.091189809112	708.742666723763	1445.004094296122	674.839222535946	682.349174085515	1497.203703103715	489.782365135412	753.563852782500	942.973432496851	642.989570663727	792.171015517773	740.843258235701	612.730715051945	708.767935875298	633.077439884681	670.288636547911	783.056321943384	580.307072639900	587.831062600777	780.757907962561	491.802214814911	590.123970438594	806.926833313172	781.324580931976	395.567380087407	759.141899037653	655.601373380944	320.993466758122	864.752513252193	593.307072283144	376.725360936733	877.518590324664	502.478899211762	369.763857086726	811.562586724284	434.383887240483	363.175514127042	669.608768535558	390.453099077480	315.370589670549	659.878305257289	259.946050093599	369.258428078907	752.478726365636	403.782390977034	596.004581826635	681.618849171886	299.712228920430	655.772173247033	719.973508980737	205.921743158622	589.781363705965	581.888012153801	43.352283359758	557.283999578455	753.646851470889	96.929660846691	593.735177209619	664.820124080204	36.293582960438	632.318292995798	873.275422428936	42.413000939777	622.319200314946	469.194515183774	198.972181541744	408.010987250004	524.089391282248	147.632843784912	328.937708455468	630.133267079018	153.306522400556	347.737518550602	703.948607236660	37.237140517888	324.265250113119	640.050872594954	1071.843861431651	240.256849584536	698.882649142529	819.962940843794	226.221231322234	719.359890961329	1112.970126890597	822.968364224456	943.827703505062	989.025320916634	804.795273518419	
4	5.260714285714	720.136037126952	965.082510035210	370.990295846598	515.676378363218	1006.983579503363	541.321888947798	672.110926581379	1432.209954280590	341.976221144458	785.074108356617	1367.400136427518	498.520102891851	710.769723306540	1445.496201163843	675.950423408244	682.807383871957	1497.758364394271	491.155831628964	752.691714648567	943.086711971199	643.622308738362	789.081538444423	740.289570876658	612.916863197658	704.903258344972	633.245572243483	670.831398098226	778.196752634728	579.842217374043	588.059316460674	775.144751732825	491.706954757822	590.327619720956	806.438592433824	784.576841629688	396.232901182863	759.805512480541	658.037208626013	321.682814425160	866.437551241853	597.182045387579	376.601016582950	880.761886361930	507.171526438639	369.916766950727	817.675506288481	437.339498186629	363.354539128407	678.203541014496	387.035320190059	315.263394423498	674.686784109014	256.136900103080	368.864999866943	746.914697510789	403.808685319288	596.242197482071	675.998829634345	299.768025681738	656.039725542101	714.388499294166	206.023211216065	589.954257161856	576.197281852740	43.311305244088	557.322110684728	748.011436356710	96.953924612418	593.833419712703	659.120703573237	36.285443105706	632.409968536179	867.575451435588	42.458356170664	622.395791919181	487.465522597793	185.476509785322	407.278095383967	544.812900131007	137.796456371050	327.898371655933	650.221368575832	148.790460702479	346.922763522396	729.824850536486	37.147306448657	322.699959891872	632.440965670085	1073.151489132710	242.626334056413	685.624152903574	820.096933097482	228.841926587253	728.893313662168	1114.365442911054	824.364029641069	957.770595600151	1000.831204853540	802.777486457000	
